<svg width="396" height="173" viewBox="0 0 396 173" fill="none" xmlns="http://www.w3.org/2000/svg">
<path d="M199 14.8054C202.544 14.8054 205.417 11.9959 205.417 8.53025C205.417 5.06461 202.544 2.25513 199 2.25513C195.456 2.25513 192.583 5.06461 192.583 8.53025C192.583 11.9959 195.456 14.8054 199 14.8054Z" stroke="#F8F8F8" stroke-width="1.66667" stroke-linejoin="round"/>
<path d="M192 2.71143L194.45 1M206 2.71143L203.55 1" stroke="#F8F8F8" stroke-width="1.66667" stroke-linecap="round" stroke-linejoin="round"/>
<path d="M196.386 8.55393L198.254 10.3832L201.5 7" stroke="#F8F8F8" stroke-width="1.66667" stroke-linecap="round" stroke-linejoin="round"/>
<rect y="169" width="392" height="4" fill="url(#paint0_linear_115_26)"/>
<rect x="297" y="33" width="99" height="4" fill="url(#paint1_linear_115_26)"/>
<path d="M7 31H106V35H7V31Z" fill="url(#paint2_linear_115_26)"/>
<g filter="url(#filter0_d_115_26)">
<path d="M116.472 50V16.4H130.968C134.712 16.4 137.608 17.152 139.656 18.656C141.736 20.16 142.776 22.288 142.776 25.04C142.776 26.864 142.344 28.4 141.48 29.648C140.648 30.896 139.496 31.84 138.024 32.48C136.584 33.12 135 33.44 133.272 33.44L134.088 32.288C136.232 32.288 138.072 32.624 139.608 33.296C141.176 33.936 142.392 34.912 143.256 36.224C144.12 37.504 144.552 39.104 144.552 41.024C144.552 43.872 143.496 46.08 141.384 47.648C139.304 49.216 136.152 50 131.928 50H116.472ZM120.024 47.072H131.88C134.824 47.072 137.08 46.576 138.648 45.584C140.216 44.56 141 42.944 141 40.736C141 38.56 140.216 36.976 138.648 35.984C137.08 34.96 134.824 34.448 131.88 34.448H119.64V31.52H130.728C133.416 31.52 135.496 31.008 136.968 29.984C138.472 28.96 139.224 27.44 139.224 25.424C139.224 23.376 138.472 21.856 136.968 20.864C135.496 19.84 133.416 19.328 130.728 19.328H120.024V47.072ZM157.459 50V16.4H170.036C172.884 16.4 175.332 16.864 177.38 17.792C179.428 18.688 180.996 20 182.084 21.728C183.204 23.424 183.764 25.488 183.764 27.92C183.764 30.288 183.204 32.336 182.084 34.064C180.996 35.76 179.428 37.072 177.38 38C175.332 38.896 172.884 39.344 170.036 39.344H159.427L161.011 37.712V50H157.459ZM180.403 50L171.764 37.808H175.603L184.292 50H180.403ZM161.011 38L159.427 36.32H169.939C173.3 36.32 175.844 35.584 177.572 34.112C179.332 32.64 180.211 30.576 180.211 27.92C180.211 25.232 179.332 23.152 177.572 21.68C175.844 20.208 173.3 19.472 169.939 19.472H159.427L161.011 17.792V38ZM196.947 50V16.4H200.499V50H196.947ZM216.231 50V16.4H219.159L242.343 45.584H240.807V16.4H244.311V50H241.383L218.247 20.816H219.783V50H216.231ZM274.814 50.288C272.254 50.288 269.886 49.872 267.71 49.04C265.566 48.176 263.694 46.976 262.094 45.44C260.526 43.904 259.294 42.096 258.398 40.016C257.534 37.936 257.102 35.664 257.102 33.2C257.102 30.736 257.534 28.464 258.398 26.384C259.294 24.304 260.542 22.496 262.142 20.96C263.742 19.424 265.614 18.24 267.758 17.408C269.934 16.544 272.302 16.112 274.862 16.112C277.422 16.112 279.758 16.512 281.87 17.312C284.014 18.112 285.838 19.328 287.342 20.96L285.134 23.216C283.726 21.808 282.174 20.8 280.478 20.192C278.782 19.584 276.958 19.28 275.006 19.28C272.926 19.28 271.006 19.632 269.246 20.336C267.518 21.008 265.998 21.984 264.686 23.264C263.406 24.512 262.398 25.984 261.662 27.68C260.958 29.344 260.606 31.184 260.606 33.2C260.606 35.184 260.958 37.024 261.662 38.72C262.398 40.416 263.406 41.904 264.686 43.184C265.998 44.432 267.518 45.408 269.246 46.112C271.006 46.784 272.91 47.12 274.958 47.12C276.878 47.12 278.686 46.832 280.382 46.256C282.11 45.68 283.694 44.704 285.134 43.328L287.15 46.016C285.55 47.424 283.678 48.496 281.534 49.232C279.39 49.936 277.15 50.288 274.814 50.288ZM283.742 45.584V33.2H287.15V46.016L283.742 45.584Z" fill="white"/>
</g>
<g filter="url(#filter1_i_115_26)">
<path d="M7 59.2434C7 57.5866 8.34315 56.2434 10 56.2434H19.25C20.9069 56.2434 22.25 57.5866 22.25 59.2434V155.066C22.25 156.723 20.9069 158.066 19.25 158.066H10C8.34315 158.066 7 156.723 7 155.066V59.2434ZM60.75 109.197C60.75 110.854 59.4069 112.197 57.75 112.197H30.375C28.7181 112.197 27.375 110.854 27.375 109.197V103.868C27.375 102.212 28.7181 100.868 30.375 100.868H57.75C59.4069 100.868 60.75 102.212 60.75 103.868V109.197ZM61.625 56.2434C63.2819 56.2434 64.625 57.5866 64.625 59.2434V65.8158C64.625 67.4727 63.2819 68.8158 61.625 68.8158H30.375C28.7181 68.8158 27.375 67.4727 27.375 65.8158V59.2434C27.375 57.5866 28.7181 56.2434 30.375 56.2434H61.625Z" fill="white"/>
<path d="M189.973 154.165C190.581 156.098 189.137 158.066 187.111 158.066H177.904C176.593 158.066 175.433 157.214 175.041 155.962L154.673 90.9002C153.796 88.0996 149.835 88.0937 148.95 90.8916L128.363 155.971C127.968 157.218 126.811 158.066 125.503 158.066H116.174C114.145 158.066 112.701 156.093 113.314 154.159L143.661 58.4746C144.056 57.2284 145.213 56.3816 146.521 56.3816H156.999C158.309 56.3816 159.467 57.2315 159.861 58.481L189.973 154.165ZM157.893 125.737C159.194 125.737 160.347 126.575 160.747 127.812L162.429 133.003C163.056 134.941 161.612 136.928 159.575 136.928H143.907C141.882 136.928 140.439 134.964 141.043 133.032L142.667 127.841C143.058 126.589 144.218 125.737 145.53 125.737H157.893Z" fill="white"/>
<path d="M245.025 83.0461C245.025 78.9934 245.65 75.3553 246.9 72.1316C248.15 68.9079 249.817 66.0987 251.9 63.704C254.067 61.2171 256.567 59.2829 259.4 57.9013C261.259 56.9618 263.17 56.2282 265.131 55.7005C266.897 55.2253 268.525 56.6392 268.525 58.4679V67.4372C268.525 68.683 267.737 69.7702 266.655 70.388C264.808 71.4428 263.223 72.945 261.9 74.8947C260.15 77.3816 259.275 79.9145 259.275 82.4934C259.275 86.0855 260.15 88.9869 261.9 91.1974C263.336 93.0113 265.081 94.6391 267.134 96.0809C267.982 96.6768 268.525 97.6305 268.525 98.6674V107.739C268.525 110.006 266.11 111.448 264.141 110.323C262.852 109.586 261.564 108.83 260.275 108.053C257.525 106.303 255.025 104.276 252.775 101.974C250.525 99.6711 248.65 97 247.15 93.9605C245.733 90.9211 245.025 87.2829 245.025 83.0461ZM246.104 143.584C246.552 141.555 248.91 140.54 250.814 141.374C251.006 141.457 251.201 141.541 251.4 141.625C253.233 142.27 255.108 142.914 257.025 143.559C258.942 144.112 260.858 144.572 262.775 144.941C264.692 145.309 266.483 145.493 268.15 145.493C268.357 145.493 268.525 145.661 268.525 145.868V158.368C268.525 158.507 268.413 158.618 268.275 158.618C266.275 158.618 264.192 158.48 262.025 158.204C259.942 158.02 257.817 157.651 255.65 157.099C253.483 156.546 251.4 155.809 249.4 154.888C248.018 154.158 246.765 153.331 245.643 152.409C244.842 151.75 244.536 150.68 244.76 149.666L246.104 143.584ZM273.65 104.628C273.65 102.395 276 100.949 277.973 101.993C279.314 102.702 280.665 103.433 282.025 104.184C284.942 105.75 287.567 107.684 289.9 109.987C292.233 112.197 294.15 114.914 295.65 118.138C297.15 121.362 297.9 125.368 297.9 130.158C297.9 133.474 297.317 136.697 296.15 139.829C295.067 142.961 293.483 145.816 291.4 148.395C289.4 150.882 286.9 153 283.9 154.75C281.816 155.966 279.532 156.892 277.046 157.53C275.276 157.984 273.65 156.568 273.65 154.74V147.239C273.65 145.883 274.575 144.726 275.825 144.199C281.208 141.93 283.9 137.157 283.9 129.882C283.9 126.658 282.942 123.987 281.025 121.868C279.418 120.093 277.431 118.414 275.064 116.833C274.196 116.253 273.65 115.292 273.65 114.249V104.628Z" fill="white"/>
<path d="M392.75 55C394.407 55 395.75 56.3431 395.75 58V66.5066C395.75 68.1634 394.407 69.5066 392.75 69.5066H371.25C369.593 69.5066 368.25 70.8497 368.25 72.5066V157C368.25 158.657 366.907 160 365.25 160H356.125C354.468 160 353.125 158.657 353.125 157V72.5066C353.125 70.8497 351.782 69.5066 350.125 69.5066H280.36C278.703 69.5066 277.36 68.1634 277.36 66.5066V58C277.36 56.3432 278.703 55 280.36 55L392.75 55Z" fill="white"/>
</g>
<path d="M84.4661 158C82.4763 158 81.0378 156.098 81.5794 154.184L107.882 61.1837C108.248 59.892 109.427 59.0001 110.769 59.0001L135.631 59.0002C135.876 59.0002 136.12 58.9701 136.358 58.9107L144 57.0002L148.922 57.0002C150.945 57.0002 152.388 58.962 151.786 60.8934L122.157 155.893C121.766 157.147 120.606 158 119.293 158L84.4661 158Z" fill="url(#paint3_linear_115_26)"/>
<defs>
<filter id="filter0_d_115_26" x="107.472" y="11.1121" width="180.87" height="44.1759" filterUnits="userSpaceOnUse" color-interpolation-filters="sRGB">
<feFlood flood-opacity="0" result="BackgroundImageFix"/>
<feColorMatrix in="SourceAlpha" type="matrix" values="0 0 0 0 0 0 0 0 0 0 0 0 0 0 0 0 0 0 127 0" result="hardAlpha"/>
<feOffset dx="-4"/>
<feGaussianBlur stdDeviation="2.5"/>
<feComposite in2="hardAlpha" operator="out"/>
<feColorMatrix type="matrix" values="0 0 0 0 0.133333 0 0 0 0 0.042616 0 0 0 0 0.0222222 0 0 0 0.82 0"/>
<feBlend mode="normal" in2="BackgroundImageFix" result="effect1_dropShadow_115_26"/>
<feBlend mode="normal" in="SourceGraphic" in2="effect1_dropShadow_115_26" result="shape"/>
</filter>
<filter id="filter1_i_115_26" x="7" y="55" width="391.75" height="105" filterUnits="userSpaceOnUse" color-interpolation-filters="sRGB">
<feFlood flood-opacity="0" result="BackgroundImageFix"/>
<feBlend mode="normal" in="SourceGraphic" in2="BackgroundImageFix" result="shape"/>
<feColorMatrix in="SourceAlpha" type="matrix" values="0 0 0 0 0 0 0 0 0 0 0 0 0 0 0 0 0 0 127 0" result="hardAlpha"/>
<feOffset dx="3"/>
<feGaussianBlur stdDeviation="4"/>
<feComposite in2="hardAlpha" operator="arithmetic" k2="-1" k3="1"/>
<feColorMatrix type="matrix" values="0 0 0 0 0.92549 0 0 0 0 0.419608 0 0 0 0 0.305882 0 0 0 0.3 0"/>
<feBlend mode="normal" in2="shape" result="effect1_innerShadow_115_26"/>
</filter>
<linearGradient id="paint0_linear_115_26" x1="196" y1="168.999" x2="-11.5" y2="170.999" gradientUnits="userSpaceOnUse">
<stop stop-color="white"/>
<stop offset="1" stop-color="#EC6B4E" stop-opacity="0"/>
</linearGradient>
<linearGradient id="paint1_linear_115_26" x1="346.5" y1="32.9994" x2="294.091" y2="33.127" gradientUnits="userSpaceOnUse">
<stop stop-color="white"/>
<stop offset="1" stop-color="#EC6B4E" stop-opacity="0"/>
</linearGradient>
<linearGradient id="paint2_linear_115_26" x1="56.5" y1="30.9994" x2="4.0911" y2="31.127" gradientUnits="userSpaceOnUse">
<stop stop-color="white"/>
<stop offset="1" stop-color="#EC6B4E" stop-opacity="0"/>
</linearGradient>
<linearGradient id="paint3_linear_115_26" x1="142.947" y1="114.298" x2="101.331" y2="103.563" gradientUnits="userSpaceOnUse">
<stop stop-color="white"/>
<stop offset="1" stop-color="#EC6B4E" stop-opacity="0"/>
</linearGradient>
</defs>
</svg>
